<svg xmlns="http://www.w3.org/2000/svg" width="1200" height="280" viewBox="0 0 1200 280" role="img" aria-labelledby="title desc">
  <title id="title">Azizul Hakim Omor</title>
  <desc id="desc">Azizul Hakim Omor personal identity for AI, software and systems</desc>
  <defs>
    <linearGradient id="background" x1="0" y1="0" x2="1" y2="1">
      <stop offset="0" stop-color="#F7FBFF"/>
      <stop offset="0.55" stop-color="#FFFFFF"/>
      <stop offset="1" stop-color="#FFF9F8"/>
    </linearGradient>
    <linearGradient id="accent" x1="0" y1="0" x2="1" y2="0">
      <stop offset="0" stop-color="#0B2E63"/>
      <stop offset="0.58" stop-color="#11A8DF"/>
      <stop offset="1" stop-color="#F26A5B"/>
    </linearGradient>
  </defs>

  <rect x="1" y="1" width="1198" height="278" rx="22" fill="url(#background)" stroke="#DDEAF4" stroke-width="2"/>

  <g transform="translate(42 20) scale(.78)">
    <path d="M58 83A118 118 0 0 0 39 234" fill="none" stroke="#11A8DF" stroke-width="5" stroke-linecap="round"/>
    <path d="M127 35A118 118 0 0 1 254 150" fill="none" stroke="#11A8DF" stroke-width="5" stroke-linecap="round"/>
    <path d="M252 185A118 118 0 0 1 134 277" fill="none" stroke="#11A8DF" stroke-width="5" stroke-linecap="round"/>
    <text x="68" y="145" font-family="Georgia, 'Times New Roman', serif" font-size="120" fill="#0B2E63">A</text>
    <text x="102" y="213" font-family="Georgia, 'Times New Roman', serif" font-size="120" fill="#0B2E63">H</text>
    <text x="150" y="272" font-family="Georgia, 'Times New Roman', serif" font-size="120" fill="#0B2E63">O</text>
  </g>

  <line x1="292" y1="62" x2="292" y2="218" stroke="#0B2E63" stroke-width="2" opacity="0.35"/>

  <text x="342" y="133" font-family="Georgia, 'Times New Roman', serif" font-size="65" letter-spacing="1" fill="#0B2E63">Azizul Hakim Omor</text>
  <text x="346" y="181" font-family="Arial, Helvetica, sans-serif" font-size="19" font-weight="600" letter-spacing="10" fill="#11A8DF">AI <tspan fill="#F26A5B">•</tspan> SOFTWARE <tspan fill="#F26A5B">•</tspan> SYSTEMS</text>
  <rect x="343" y="207" width="650" height="4" rx="2" fill="url(#accent)"/>
</svg>