<svg xmlns="http://www.w3.org/2000/svg" width="1200" height="560" viewBox="0 0 1200 560" role="img" aria-labelledby="title desc">
  <title id="title">Azizul Hakim Omor profile overview</title>
  <desc id="desc">About, interests and technology stack in a clean professional card.</desc>

  <rect x="1" y="1" width="1198" height="558" rx="22" fill="#FFFFFF" stroke="#E2E8F0" stroke-width="2"/>

  <!-- About -->
  <circle cx="56" cy="62" r="23" fill="#F8FAFC" stroke="#1188E6" stroke-width="2"/>
  <circle cx="56" cy="55" r="6" fill="none" stroke="#1188E6" stroke-width="2"/>
  <path d="M45 75c1-9 5-13 11-13s10 4 11 13" fill="none" stroke="#1188E6" stroke-width="2" stroke-linecap="round"/>
  <text x="98" y="70" font-family="Arial, Helvetica, sans-serif" font-size="28" font-weight="700" fill="#081C3A">About</text>
  <text x="98" y="112" font-family="Arial, Helvetica, sans-serif" font-size="21" fill="#475569">Computer Science and Engineering student at</text>
  <text x="525" y="112" font-family="Arial, Helvetica, sans-serif" font-size="21" font-weight="700" fill="#1188E6">Southeast University</text>
  <text x="720" y="112" font-family="Arial, Helvetica, sans-serif" font-size="21" fill="#475569">, focused on building practical software</text>
  <text x="98" y="145" font-family="Arial, Helvetica, sans-serif" font-size="21" fill="#475569">with clean interfaces, reliable backends, databases, APIs, and secure development practices.</text>

  <line x1="38" y1="184" x2="1162" y2="184" stroke="#E2E8F0" stroke-width="2"/>

  <!-- Interests -->
  <circle cx="56" cy="238" r="23" fill="#F8FAFC" stroke="#1188E6" stroke-width="2"/>
  <path d="M56 223l4 9 10 1-8 6 3 10-9-5-9 5 3-10-8-6 10-1z" fill="none" stroke="#1188E6" stroke-width="2" stroke-linejoin="round"/>
  <text x="98" y="246" font-family="Arial, Helvetica, sans-serif" font-size="28" font-weight="700" fill="#081C3A">Interests</text>
  <text x="98" y="286" font-family="Arial, Helvetica, sans-serif" font-size="21" fill="#475569">Software Development</text>
  <circle cx="311" cy="279" r="4" fill="#1188E6"/>
  <text x="329" y="286" font-family="Arial, Helvetica, sans-serif" font-size="21" fill="#475569">Artificial Intelligence</text>
  <circle cx="550" cy="279" r="4" fill="#1188E6"/>
  <text x="568" y="286" font-family="Arial, Helvetica, sans-serif" font-size="21" fill="#475569">Machine Learning</text>
  <circle cx="757" cy="279" r="4" fill="#1188E6"/>
  <text x="775" y="286" font-family="Arial, Helvetica, sans-serif" font-size="21" fill="#475569">Cybersecurity</text>

  <line x1="38" y1="324" x2="1162" y2="324" stroke="#E2E8F0" stroke-width="2"/>

  <!-- Tech Stack -->
  <circle cx="56" cy="378" r="23" fill="#F8FAFC" stroke="#1188E6" stroke-width="2"/>
  <text x="41" y="386" font-family="Arial, Helvetica, sans-serif" font-size="20" font-weight="700" fill="#1188E6">&lt;/&gt;</text>
  <text x="98" y="386" font-family="Arial, Helvetica, sans-serif" font-size="28" font-weight="700" fill="#081C3A">Tech Stack</text>

  <!-- Java -->
  <g transform="translate(40 414)">
    <rect width="102" height="116" rx="12" fill="#FAFCFF" stroke="#E2E8F0"/>
    <circle cx="51" cy="42" r="25" fill="#F26A5B"/>
    <text x="51" y="49" text-anchor="middle" font-family="Arial, Helvetica, sans-serif" font-size="19" font-weight="700" fill="#FFFFFF">J</text>
    <text x="51" y="94" text-anchor="middle" font-family="Arial, Helvetica, sans-serif" font-size="16" fill="#334155">Java</text>
  </g>

  <!-- Spring -->
  <g transform="translate(153 414)">
    <rect width="102" height="116" rx="12" fill="#FAFCFF" stroke="#E2E8F0"/>
    <circle cx="51" cy="42" r="25" fill="#6DB33F"/>
    <text x="51" y="49" text-anchor="middle" font-family="Arial, Helvetica, sans-serif" font-size="18" font-weight="700" fill="#FFFFFF">S</text>
    <text x="51" y="94" text-anchor="middle" font-family="Arial, Helvetica, sans-serif" font-size="16" fill="#334155">Spring</text>
  </g>

  <!-- Python -->
  <g transform="translate(266 414)">
    <rect width="102" height="116" rx="12" fill="#FAFCFF" stroke="#E2E8F0"/>
    <circle cx="51" cy="42" r="25" fill="#3776AB"/>
    <path d="M30 42a21 21 0 0 1 42 0" fill="#FFD43B" opacity="0.95"/>
    <text x="51" y="49" text-anchor="middle" font-family="Arial, Helvetica, sans-serif" font-size="15" font-weight="700" fill="#FFFFFF">Py</text>
    <text x="51" y="94" text-anchor="middle" font-family="Arial, Helvetica, sans-serif" font-size="16" fill="#334155">Python</text>
  </g>

  <!-- Django -->
  <g transform="translate(379 414)">
    <rect width="102" height="116" rx="12" fill="#FAFCFF" stroke="#E2E8F0"/>
    <circle cx="51" cy="42" r="25" fill="#0B3D2E"/>
    <text x="51" y="49" text-anchor="middle" font-family="Arial, Helvetica, sans-serif" font-size="16" font-weight="700" fill="#FFFFFF">Dj</text>
    <text x="51" y="94" text-anchor="middle" font-family="Arial, Helvetica, sans-serif" font-size="16" fill="#334155">Django</text>
  </g>

  <!-- React -->
  <g transform="translate(492 414)">
    <rect width="102" height="116" rx="12" fill="#FAFCFF" stroke="#E2E8F0"/>
    <circle cx="51" cy="42" r="25" fill="#E8F9FF" stroke="#11A8DF" stroke-width="2"/>
    <ellipse cx="51" cy="42" rx="20" ry="8" fill="none" stroke="#11A8DF" stroke-width="2"/>
    <ellipse cx="51" cy="42" rx="20" ry="8" transform="rotate(60 51 42)" fill="none" stroke="#11A8DF" stroke-width="2"/>
    <ellipse cx="51" cy="42" rx="20" ry="8" transform="rotate(120 51 42)" fill="none" stroke="#11A8DF" stroke-width="2"/>
    <circle cx="51" cy="42" r="3" fill="#11A8DF"/>
    <text x="51" y="94" text-anchor="middle" font-family="Arial, Helvetica, sans-serif" font-size="16" fill="#334155">React</text>
  </g>

  <!-- TypeScript -->
  <g transform="translate(605 414)">
    <rect width="102" height="116" rx="12" fill="#FAFCFF" stroke="#E2E8F0"/>
    <rect x="26" y="17" width="50" height="50" rx="10" fill="#3178C6"/>
    <text x="51" y="50" text-anchor="middle" font-family="Arial, Helvetica, sans-serif" font-size="17" font-weight="700" fill="#FFFFFF">TS</text>
    <text x="51" y="94" text-anchor="middle" font-family="Arial, Helvetica, sans-serif" font-size="15" fill="#334155">TypeScript</text>
  </g>

  <!-- PostgreSQL -->
  <g transform="translate(718 414)">
    <rect width="102" height="116" rx="12" fill="#FAFCFF" stroke="#E2E8F0"/>
    <circle cx="51" cy="42" r="25" fill="#336791"/>
    <text x="51" y="49" text-anchor="middle" font-family="Arial, Helvetica, sans-serif" font-size="16" font-weight="700" fill="#FFFFFF">Pg</text>
    <text x="51" y="94" text-anchor="middle" font-family="Arial, Helvetica, sans-serif" font-size="14" fill="#334155">PostgreSQL</text>
  </g>

  <!-- Firebase -->
  <g transform="translate(831 414)">
    <rect width="102" height="116" rx="12" fill="#FAFCFF" stroke="#E2E8F0"/>
    <circle cx="51" cy="42" r="25" fill="#FFCA28"/>
    <path d="M40 56l7-33 8 15 7-10 2 28z" fill="#F57C00"/>
    <text x="51" y="94" text-anchor="middle" font-family="Arial, Helvetica, sans-serif" font-size="15" fill="#334155">Firebase</text>
  </g>

  <!-- Docker -->
  <g transform="translate(944 414)">
    <rect width="102" height="116" rx="12" fill="#FAFCFF" stroke="#E2E8F0"/>
    <circle cx="51" cy="42" r="25" fill="#2496ED"/>
    <text x="51" y="49" text-anchor="middle" font-family="Arial, Helvetica, sans-serif" font-size="15" font-weight="700" fill="#FFFFFF">Dk</text>
    <text x="51" y="94" text-anchor="middle" font-family="Arial, Helvetica, sans-serif" font-size="16" fill="#334155">Docker</text>
  </g>

  <!-- Git -->
  <g transform="translate(1057 414)">
    <rect width="102" height="116" rx="12" fill="#FAFCFF" stroke="#E2E8F0"/>
    <circle cx="51" cy="42" r="25" fill="#F05032"/>
    <text x="51" y="49" text-anchor="middle" font-family="Arial, Helvetica, sans-serif" font-size="15" font-weight="700" fill="#FFFFFF">Git</text>
    <text x="51" y="94" text-anchor="middle" font-family="Arial, Helvetica, sans-serif" font-size="16" fill="#334155">Git</text>
  </g>
</svg>